<?xml version="1.0" standalone="no"?>
<!DOCTYPE svg PUBLIC "-//W3C//DTD SVG 20010904//EN"
 "http://www.w3.org/TR/2001/REC-SVG-20010904/DTD/svg10.dtd">
<svg version="1.0" xmlns="http://www.w3.org/2000/svg"
 width="1024.000000pt" height="262.000000pt" viewBox="0 0 1024.000000 262.000000"
 preserveAspectRatio="xMidYMid meet">

<g transform="translate(0.000000,262.000000) scale(0.100000,-0.100000)"
fill="#000000" stroke="none">
<path d="M5660 2173 c-30 -27 -34 -37 -38 -91 -4 -60 -3 -63 31 -97 31 -31 41
-35 85 -35 40 0 57 6 81 26 29 24 31 30 31 94 0 93 -22 121 -102 128 -50 4
-58 2 -88 -25z"/>
<path d="M6058 2171 l-33 -29 0 -534 0 -533 24 -65 c67 -183 222 -311 410
-340 118 -19 182 20 183 110 1 72 -54 120 -139 120 -82 0 -188 77 -230 167
-16 34 -18 86 -21 548 -2 373 -6 516 -14 533 -30 58 -127 70 -180 23z"/>
<path d="M2768 1844 c-59 -31 -58 -26 -58 -589 l0 -515 33 -36 c27 -30 41 -37
74 -38 50 -1 84 16 106 54 15 25 17 71 17 405 0 415 -1 411 63 459 41 31 108
56 152 56 37 0 88 -32 119 -73 20 -27 21 -42 26 -432 l5 -403 24 -26 c49 -52
133 -52 182 0 l24 26 5 400 5 400 44 39 c49 44 136 75 183 65 42 -8 83 -40
102 -80 14 -29 16 -84 17 -408 0 -261 4 -383 12 -408 17 -50 85 -83 142 -70
22 5 50 21 63 36 l23 26 -3 427 -3 426 -25 50 c-35 72 -117 150 -197 188 -58
27 -79 32 -143 32 -93 0 -156 -21 -245 -81 l-67 -45 -51 39 c-69 53 -101 68
-175 83 -77 16 -168 3 -247 -35 l-53 -26 -35 35 c-39 39 -73 44 -119 19z"/>
<path d="M4720 1845 c-172 -39 -332 -166 -408 -326 -46 -97 -62 -162 -62 -257
0 -159 60 -293 185 -418 124 -123 246 -177 405 -177 128 0 254 40 346 109 l32
23 6 -37 c15 -100 155 -133 206 -49 19 31 20 54 20 554 l0 521 -30 31 c-39 39
-91 49 -137 27 -34 -16 -63 -64 -63 -105 0 -17 -8 -14 -62 23 -122 81 -296
113 -438 81z m242 -225 c20 -6 64 -29 97 -51 239 -159 207 -524 -57 -647 -50
-24 -70 -27 -157 -27 -90 0 -106 3 -159 29 -160 79 -245 258 -202 426 55 212
264 331 478 270z"/>
<path d="M5690 1847 c-13 -7 -35 -28 -47 -46 l-23 -34 0 -499 c0 -535 1 -547
51 -582 31 -21 108 -21 135 2 12 9 27 27 33 39 8 15 11 176 11 533 0 568 2
553 -66 585 -39 18 -61 19 -94 2z"/>
</g>
</svg>
